<svg width="500" height="500" viewBox="0 0 500 500" fill="none" xmlns="http://www.w3.org/2000/svg">
<rect width="500" height="500" fill="white"/>
<path d="M243.5 93L254 101.5V114M254 139.5V158.5H190V155C190 139.536 202.536 127 218 127H282C297.464 127 310 139.536 310 155V178H200V206.825C200 226.862 212.199 244.879 230.802 252.321L250 260L269.198 252.321C287.801 244.879 300 226.862 300 206.825V190.5" stroke="black" stroke-width="14"/>
<path d="M145.045 321.3V386H131.045V321.3H145.045ZM171.359 386H157.959V337.2H170.159V339.7C172.226 337.367 175.359 336.2 179.559 336.2H181.659C189.926 336.2 194.059 340.6 194.059 349.4V386H180.659V347.8C180.659 347.267 180.459 346.8 180.059 346.4C179.726 346 179.292 345.8 178.759 345.8H173.259C172.726 345.8 172.259 346 171.859 346.4C171.526 346.8 171.359 347.267 171.359 347.8V386ZM219.574 386H206.174V321.3H219.574V338.6C221.574 337 224.307 336.2 227.774 336.2H229.874C238.14 336.2 242.274 340.6 242.274 349.4V386H228.874V347.8C228.874 347.267 228.674 346.8 228.274 346.4C227.94 346 227.507 345.8 226.974 345.8H221.474C220.34 345.8 219.707 346.4 219.574 347.6V386ZM278.089 336.2C286.355 336.2 290.489 340.6 290.489 349.4V365.2H267.789V375.4C267.789 375.933 267.955 376.4 268.289 376.8C268.689 377.2 269.155 377.4 269.689 377.4H275.189C275.722 377.4 276.155 377.2 276.489 376.8C276.889 376.4 277.089 375.933 277.089 375.4V370H290.489V373.8C290.489 382.6 286.355 387 278.089 387H266.789C258.522 387 254.389 382.6 254.389 373.8V349.4C254.389 340.6 258.522 336.2 266.789 336.2H278.089ZM267.789 356.4H277.089V347.4C277.089 346.867 276.889 346.4 276.489 346C276.155 345.6 275.722 345.4 275.189 345.4H269.689C269.155 345.4 268.689 345.6 268.289 346C267.955 346.4 267.789 346.867 267.789 347.4V356.4ZM321.646 336.2H324.246V349.2H317.646C315.379 349.2 314.246 350.367 314.246 352.7V386H300.846V337.2H313.046V341.9C314.979 338.1 317.846 336.2 321.646 336.2ZM347.74 336.2C351.14 336.2 353.874 337 355.94 338.6V321.3H369.34V386H358.04V382.4C355.974 385.467 352.54 387 347.74 387H345.64C337.374 387 333.24 382.6 333.24 373.8V349.4C333.24 340.6 337.374 336.2 345.64 336.2H347.74ZM355.94 375.4V347.8C355.94 347.267 355.74 346.8 355.34 346.4C355.007 346 354.574 345.8 354.04 345.8H348.54C348.007 345.8 347.54 346 347.14 346.4C346.807 346.8 346.64 347.267 346.64 347.8V375.4C346.64 375.933 346.807 376.4 347.14 376.8C347.54 377.2 348.007 377.4 348.54 377.4H354.04C354.574 377.4 355.007 377.2 355.34 376.8C355.74 376.4 355.94 375.933 355.94 375.4Z" fill="#240F04"/>
</svg>
